# xmcd
#
# Track frame offsets:
#	150
#	16109
#	26888
#	42324
#	56248
#	71677
#	86151
#	98700
#	113625
#	124630
#	141112
#	158107
#	174809
#	186575
#	200131
#	215322
#	230429
#	246257
#	260883
#	271292
#
# Disc length: 3855
#
# Revision: 1
# Processed by: cddbd v1.5.1PL0 Copyright (c) Steve Scherf et al.
# Submitted via: dBpowerAMP V4.0
# Normalized: r0:TRMNUM
#
DISCID=270f0d14
DTITLE=Varios - Texano Cumbias 2003-2004
DYEAR=2004
DGENRE=Folklore
TTITLE0=Margarita,Margarita
TTITLE1=Firi Firi Loco
TTITLE2=Muevete,Muevete
TTITLE3=De Tres Flores
TTITLE4=Cuando Salgo a Los Campos
TTITLE5=Chiquitita
TTITLE6=Cuando,Cuando
TTITLE7=La Endiablada
TTITLE8=El Playboy
TTITLE9=Timido
TTITLE10=La Prima
TTITLE11=Muevete
TTITLE12=Muevete Que Muevete
TTITLE13=Cuca La Loca
TTITLE14=Ritmo Facil
TTITLE15=Cumbia Sabrosa
TTITLE16=La Hermana De Mi Vecino
TTITLE17=Baila Conmigo
TTITLE18=Chucu Chuco Tren
TTITLE19=Pa´ya y Pa´ca
EXTD=
EXTT0=
EXTT1=
EXTT2=
EXTT3=
EXTT4=
EXTT5=
EXTT6=
EXTT7=
EXTT8=
EXTT9=
EXTT10=
EXTT11=
EXTT12=
EXTT13=
EXTT14=
EXTT15=
EXTT16=
EXTT17=
EXTT18=
EXTT19=
PLAYORDER=
